<svg width="14" height="13" viewBox="0 0 14 13" fill="none" xmlns="http://www.w3.org/2000/svg">
<g clip-path="url(#clip0_201_234)">
<path d="M12.7999 0.637101C12.7999 0.637101 14.0666 0.0885297 13.9999 1.39139C13.9333 1.93996 13.6666 3.72282 13.3999 5.71139L12.5333 11.4714C12.5333 11.4714 12.4666 12.2942 11.7999 12.5C11.1333 12.6371 10.1999 11.9514 9.99994 11.8142C9.86661 11.6771 7.33328 10.0314 6.39995 9.20853C6.13328 9.00282 5.86661 8.52282 6.46661 8.04282L10.2666 4.33996C10.6666 3.92853 11.1333 2.83139 9.33328 4.13424L4.26661 7.63139C4.26661 7.63139 3.66661 7.97424 2.59994 7.69996L0.266612 6.94567C0.266612 6.94567 -0.600055 6.3971 0.866612 5.84853C4.46661 4.06567 8.86661 2.28282 12.7999 0.637101Z" fill="black"/>
</g>
<defs>
<clipPath id="clip0_201_234">
<rect width="14" height="12" fill="white" transform="translate(0 0.5)"/>
</clipPath>
</defs>
</svg>
