<svg width="62" height="62" viewBox="0 0 62 62" fill="none" xmlns="http://www.w3.org/2000/svg">
<path fill-rule="evenodd" clip-rule="evenodd" d="M3.15759 6.81528C0 11.1613 0 17.3609 0 29.76V32.24C0 44.6391 0 50.8387 3.15759 55.1847C4.17736 56.5883 5.41169 57.8226 6.81528 58.8424C11.1613 62 17.3609 62 29.76 62H32.24C44.6391 62 50.8387 62 55.1847 58.8424C56.5883 57.8226 57.8226 56.5883 58.8424 55.1847C62 50.8387 62 44.6391 62 32.24V29.76C62 17.3609 62 11.1613 58.8424 6.81528C57.8226 5.41169 56.5883 4.17736 55.1847 3.15759C50.8387 0 44.6391 0 32.24 0H29.76C17.3609 0 11.1613 0 6.81528 3.15759C5.41169 4.17736 4.17736 5.41169 3.15759 6.81528ZM40.7752 17.7489C40.7357 17.4047 40.6228 17.0202 40.3385 16.7069C40.0364 16.3738 39.6554 16.246 39.3304 16.217C39.0305 16.1902 38.7526 16.2433 38.5542 16.2931C38.3574 16.3426 38.1621 16.4097 38.0166 16.4597L37.9867 16.47C36.2923 17.052 35.146 18.7486 34.4656 20.3566C33.7685 22.004 33.4154 23.8954 33.5397 25.2883C33.7226 27.3371 34.4343 29.431 35.5887 31.2181C33.9224 34.3277 31.7864 37.3085 29.7878 39.9197C29.6641 40.0813 29.5364 40.2541 29.4044 40.4329C28.915 41.0955 28.3647 41.8403 27.7287 42.404C27.336 42.7521 26.9936 42.9505 26.7096 43.0226C26.4701 43.0834 26.2347 43.0675 25.9435 42.8808C25.0918 42.3345 24.6082 41.8071 24.2607 41.2156C24.2159 41.1394 24.1729 41.0615 24.1315 40.9815C24.5433 41.0364 24.965 40.838 25.1756 40.4514C25.3206 40.1854 25.5272 39.8431 25.7773 39.4286C25.839 39.3265 25.9033 39.22 25.9699 39.1091C26.2979 38.5638 26.6683 37.938 27.0026 37.305C27.3342 36.677 27.6483 36.0085 27.8506 35.3777C28.036 34.7998 28.1862 34.0814 28.0075 33.4184C27.9919 33.3423 27.9737 33.2441 27.9527 33.1307C27.8806 32.7416 27.7753 32.1735 27.6297 31.7048C27.5283 31.3783 27.3808 30.9993 27.1505 30.6735C26.916 30.3419 26.5238 29.97 25.9311 29.8863C24.7401 29.7182 23.7727 30.2208 23.0776 30.8363C22.3942 31.4415 21.8947 32.2191 21.565 32.8242C20.3117 35.1238 20.7443 37.301 21.3563 39.3792C21.6632 40.4212 21.9669 41.3914 22.4789 42.2627C23.0098 43.1662 23.7359 43.9201 24.8277 44.6204C25.6134 45.1243 26.439 45.2234 27.218 45.0258C27.9525 44.8393 28.5859 44.4058 29.0996 43.9506C29.919 43.2243 30.6455 42.2365 31.1347 41.5714C31.2455 41.4207 31.3441 41.2866 31.4289 41.1758C33.2831 38.7534 35.3049 35.952 36.9762 32.9839C37.5268 33.5606 38.1391 34.0789 38.8101 34.5174C41.0469 35.979 43.3115 36.0123 45.1765 35.1053C45.649 35.8032 46.2558 36.3763 46.9914 36.7596C48.0731 37.3235 49.3372 37.4261 50.663 37.0356C51.9377 36.6601 52.9273 35.9564 53.7772 35.2514C54.0953 34.9877 54.3804 34.737 54.6527 34.4978C55.1543 34.0569 55.6121 33.6546 56.1504 33.2798C56.6188 32.9537 56.7341 32.3097 56.408 31.8413C56.0819 31.373 55.4379 31.2576 54.9696 31.5837C54.3396 32.0223 53.7257 32.5603 53.1703 33.0469C52.9196 33.2665 52.6807 33.4759 52.4579 33.6608C51.6871 34.3001 50.9547 34.7952 50.0791 35.0531C49.2072 35.3099 48.502 35.2165 47.9466 34.927C47.5489 34.7197 47.1806 34.3865 46.8717 33.9231C48.6423 32.25 49.6644 29.6274 49.4708 26.9563C49.4348 26.4608 49.3192 25.9734 49.0433 25.5693C48.7438 25.1305 48.3182 24.8817 47.8589 24.7904C47.4386 24.7069 47.0234 24.7603 46.6807 24.8388C46.3296 24.9193 45.973 25.0459 45.6435 25.1749C43.695 25.9378 43.3994 27.9328 43.4848 29.4312C43.5653 30.8434 43.992 32.3038 44.3004 33.2335C43.0695 33.8437 41.5646 33.8486 39.9406 32.7873C39.2227 32.3182 38.5739 31.7223 38.0078 31.0337C39.0069 29.009 39.8104 26.9091 40.2503 24.7991C40.7083 22.6024 41.0478 20.1247 40.7752 17.7489ZM38.2271 24.3773C37.9106 25.8955 37.3775 27.4373 36.6919 28.9755C36.0915 27.7492 35.7149 26.4116 35.5982 25.1046C35.511 24.128 35.7691 22.5795 36.3689 21.162C36.9854 19.7051 37.8216 18.7119 38.6581 18.4245L38.6727 18.4195L38.7616 18.3891C38.9188 20.3245 38.6402 22.3958 38.2271 24.3773ZM24.0209 38.3392C23.8216 38.6692 23.6312 38.9847 23.4766 39.2555C23.4318 39.109 23.3861 38.9558 23.3388 38.7953C22.7531 36.8065 22.5465 35.3419 23.3797 33.8131C23.6604 33.298 24.0237 32.759 24.4477 32.3836C24.8096 32.0631 25.15 31.9146 25.4969 31.921C25.5416 32.0006 25.5974 32.1289 25.6561 32.3179C25.7631 32.6624 25.8273 33.0101 25.8926 33.3639C25.9239 33.5337 25.9555 33.705 25.9922 33.8778L26.0005 33.9169L26.0118 33.9552C26.0278 34.0097 26.0438 34.2443 25.8827 34.7466C25.7342 35.2097 25.4837 35.7555 25.1751 36.3399C24.8692 36.9191 24.5239 37.5036 24.1989 38.044C24.1682 38.0951 24.1375 38.146 24.1069 38.1967C24.0781 38.2445 24.0494 38.292 24.0209 38.3392ZM47.4095 27.1057C47.5379 28.877 46.9733 30.5767 46.0181 31.7973C45.7989 31.0363 45.5955 30.146 45.5481 29.3136C45.472 27.9778 45.8025 27.332 46.3969 27.0993C46.6947 26.9828 46.9399 26.8997 47.1421 26.8533C47.2425 26.8303 47.3154 26.8205 47.3657 26.8168C47.3814 26.8748 47.3994 26.967 47.4095 27.1057ZM18.7801 24.7405L12.9417 26.4601L18.8767 44.8153C19.0523 45.3583 18.7544 45.9409 18.2114 46.1165C17.6684 46.292 17.0858 45.9942 16.9103 45.4511L10.9586 27.0442L5.60694 28.6204C5.05949 28.7816 4.48499 28.4685 4.32376 27.9211C4.16252 27.3737 4.4756 26.7992 5.02305 26.6379L11.2185 24.8132C11.2487 24.8001 11.2799 24.7884 11.3119 24.778C11.3617 24.7619 11.4119 24.7498 11.4621 24.7415L18.1963 22.7581C18.7437 22.5968 19.3182 22.9099 19.4794 23.4574C19.6407 24.0048 19.3276 24.5793 18.7801 24.7405Z" fill="black"/>
</svg>
