<svg width="23" height="21" viewBox="0 0 23 21" fill="none" xmlns="http://www.w3.org/2000/svg">
<path d="M20.7456 1.14628C20.7456 1.14628 22.7985 0.271076 22.6904 2.34968C22.5824 3.22489 22.1502 6.06929 21.718 9.2419L20.3133 18.4315C20.3133 18.4315 20.2053 19.7443 19.1248 20.0725C18.0443 20.2913 16.5316 19.1973 16.2075 18.9785C15.9914 18.7597 11.8855 16.1341 10.3728 14.8213C9.94058 14.4931 9.50838 13.7273 10.4808 12.9615L16.6397 7.0539C17.288 6.3975 18.0443 4.64709 15.127 6.7257L6.91518 12.3051C6.91518 12.3051 5.94274 12.8521 4.21394 12.4145L0.4322 11.2111C0.4322 11.2111 -0.972446 10.3359 1.40465 9.46071C7.23933 6.6163 14.3706 3.77189 20.7456 1.14628Z" fill="white"/>
</svg>
